<?xml version="1.0" encoding="UTF-8" standalone="no"?>
<!-- Created with Inkscape (http://www.inkscape.org/) -->

<svg
   xmlns:dc="http://purl.org/dc/elements/1.1/"
   xmlns:cc="http://creativecommons.org/ns#"
   xmlns:rdf="http://www.w3.org/1999/02/22-rdf-syntax-ns#"
   xmlns:svg="http://www.w3.org/2000/svg"
   xmlns="http://www.w3.org/2000/svg"
   xmlns:sodipodi="http://sodipodi.sourceforge.net/DTD/sodipodi-0.dtd"
   xmlns:inkscape="http://www.inkscape.org/namespaces/inkscape"
   width="378.24887"
   height="375.96722"
   id="svg2"
   version="1.1"
   inkscape:version="0.48.3.1 r9886"
   sodipodi:docname="ros.svg">
  <defs
     id="defs4" />
  <sodipodi:namedview
     id="base"
     pagecolor="#ffffff"
     bordercolor="#666666"
     borderopacity="1.0"
     inkscape:pageopacity="0.0"
     inkscape:pageshadow="2"
     inkscape:zoom="2.3727668"
     inkscape:cx="229.64169"
     inkscape:cy="194.76638"
     inkscape:document-units="px"
     inkscape:current-layer="layer1"
     showgrid="false"
     inkscape:window-width="1400"
     inkscape:window-height="1026"
     inkscape:window-x="0"
     inkscape:window-y="24"
     inkscape:window-maximized="1"
     fit-margin-top="10"
     fit-margin-right="10"
     fit-margin-bottom="10"
     fit-margin-left="10" />
  <metadata
     id="metadata7">
    <rdf:RDF>
      <cc:Work
         rdf:about="">
        <dc:format>image/svg+xml</dc:format>
        <dc:type
           rdf:resource="http://purl.org/dc/dcmitype/StillImage" />
        <dc:title />
      </cc:Work>
    </rdf:RDF>
  </metadata>
  <g
     inkscape:groupmode="layer"
     id="layer2"
     inkscape:label="レイヤー"
     style="display:none"
     transform="translate(-202.57142,-306.36218)" />
  <g
     inkscape:label="レイヤー 1"
     inkscape:groupmode="layer"
     id="layer1"
     style="display:inline"
     transform="translate(-202.57142,-306.36218)">
    <path
       sodipodi:type="arc"
       style="fill:#ffffff;fill-rule:evenodd;stroke:none"
       id="path2997"
       sodipodi:cx="255.71428"
       sodipodi:cy="359.50504"
       sodipodi:rx="47.142857"
       sodipodi:ry="47.142857"
       d="m 302.85714,359.50504 c 0,26.03628 -21.10658,47.14285 -47.14286,47.14285 -26.03628,0 -47.14286,-21.10657 -47.14286,-47.14285 0,-26.03629 21.10658,-47.14286 47.14286,-47.14286 26.03628,0 47.14286,21.10657 47.14286,47.14286 z"
       transform="translate(4,4)" />
    <path
       transform="translate(6.000007,130.28572)"
       sodipodi:type="arc"
       style="fill:#ffffff;fill-rule:evenodd;stroke:none;display:inline"
       id="path2997-8"
       sodipodi:cx="255.71428"
       sodipodi:cy="359.50504"
       sodipodi:rx="47.142857"
       sodipodi:ry="47.142857"
       d="m 302.85714,359.50504 c 0,26.03628 -21.10658,47.14285 -47.14286,47.14285 -26.03628,0 -47.14286,-21.10657 -47.14286,-47.14285 0,-26.03629 21.10658,-47.14286 47.14286,-47.14286 26.03628,0 47.14286,21.10657 47.14286,47.14286 z" />
    <path
       transform="translate(6.857149,264.85715)"
       sodipodi:type="arc"
       style="fill:#ffffff;fill-rule:evenodd;stroke:none;display:inline"
       id="path2997-6"
       sodipodi:cx="255.71428"
       sodipodi:cy="359.50504"
       sodipodi:rx="47.142857"
       sodipodi:ry="47.142857"
       d="m 302.85714,359.50504 c 0,26.03628 -21.10658,47.14285 -47.14286,47.14285 -26.03628,0 -47.14286,-21.10657 -47.14286,-47.14285 0,-26.03629 21.10658,-47.14286 47.14286,-47.14286 26.03628,0 47.14286,21.10657 47.14286,47.14286 z" />
    <path
       sodipodi:type="arc"
       style="fill:#ffffff;fill-rule:evenodd;stroke:none;display:inline"
       id="path2997-4"
       sodipodi:cx="255.71428"
       sodipodi:cy="359.50504"
       sodipodi:rx="47.142857"
       sodipodi:ry="47.142857"
       d="m 302.85714,359.50504 c 0,26.03628 -21.10658,47.14285 -47.14286,47.14285 -26.03628,0 -47.14286,-21.10657 -47.14286,-47.14285 0,-26.03629 21.10658,-47.14286 47.14286,-47.14286 26.03628,0 47.14286,21.10657 47.14286,47.14286 z"
       transform="translate(136.77603,4.8243625)" />
    <path
       transform="translate(138.77603,131.11009)"
       sodipodi:type="arc"
       style="fill:#ffffff;fill-rule:evenodd;stroke:none;display:inline"
       id="path2997-8-7"
       sodipodi:cx="255.71428"
       sodipodi:cy="359.50504"
       sodipodi:rx="47.142857"
       sodipodi:ry="47.142857"
       d="m 302.85714,359.50504 c 0,26.03628 -21.10658,47.14285 -47.14286,47.14285 -26.03628,0 -47.14286,-21.10657 -47.14286,-47.14285 0,-26.03629 21.10658,-47.14286 47.14286,-47.14286 26.03628,0 47.14286,21.10657 47.14286,47.14286 z" />
    <path
       transform="translate(139.63318,265.68152)"
       sodipodi:type="arc"
       style="fill:#ffffff;fill-rule:evenodd;stroke:none;display:inline"
       id="path2997-6-7"
       sodipodi:cx="255.71428"
       sodipodi:cy="359.50504"
       sodipodi:rx="47.142857"
       sodipodi:ry="47.142857"
       d="m 302.85714,359.50504 c 0,26.03628 -21.10658,47.14285 -47.14286,47.14285 -26.03628,0 -47.14286,-21.10657 -47.14286,-47.14285 0,-26.03629 21.10658,-47.14286 47.14286,-47.14286 26.03628,0 47.14286,21.10657 47.14286,47.14286 z" />
    <path
       sodipodi:type="arc"
       style="fill:#ffffff;fill-rule:evenodd;stroke:none;display:inline"
       id="path2997-4-8"
       sodipodi:cx="255.71428"
       sodipodi:cy="359.50504"
       sodipodi:rx="47.142857"
       sodipodi:ry="47.142857"
       d="m 302.85714,359.50504 c 0,26.03628 -21.10658,47.14285 -47.14286,47.14285 -26.03628,0 -47.14286,-21.10657 -47.14286,-47.14285 0,-26.03629 21.10658,-47.14286 47.14286,-47.14286 26.03628,0 47.14286,21.10657 47.14286,47.14286 z"
       transform="translate(265.10601,4.8243626)" />
    <path
       transform="translate(267.10601,131.1101)"
       sodipodi:type="arc"
       style="fill:#ffffff;fill-rule:evenodd;stroke:none;display:inline"
       id="path2997-8-7-9"
       sodipodi:cx="255.71428"
       sodipodi:cy="359.50504"
       sodipodi:rx="47.142857"
       sodipodi:ry="47.142857"
       d="m 302.85714,359.50504 c 0,26.03628 -21.10658,47.14285 -47.14286,47.14285 -26.03628,0 -47.14286,-21.10657 -47.14286,-47.14285 0,-26.03629 21.10658,-47.14286 47.14286,-47.14286 26.03628,0 47.14286,21.10657 47.14286,47.14286 z" />
    <path
       transform="translate(267.96316,265.68152)"
       sodipodi:type="arc"
       style="fill:#ffffff;fill-rule:evenodd;stroke:none;display:inline"
       id="path2997-6-7-8"
       sodipodi:cx="255.71428"
       sodipodi:cy="359.50504"
       sodipodi:rx="47.142857"
       sodipodi:ry="47.142857"
       d="m 302.85714,359.50504 c 0,26.03628 -21.10658,47.14285 -47.14286,47.14285 -26.03628,0 -47.14286,-21.10657 -47.14286,-47.14285 0,-26.03629 21.10658,-47.14286 47.14286,-47.14286 26.03628,0 47.14286,21.10657 47.14286,47.14286 z" />
  </g>
</svg>
